HIERARCHY
ROOT Hips
{
	OFFSET 0.000000 0.000000 0.000000
	CHANNELS 6 Xposition Yposition Zposition Xrotation Yrotation Zrotation
	JOINT LeftUpLeg_virtual
	{
		OFFSET 0.000000 0.000000 0.000000
		CHANNELS 3 Xrotation Yrotation Zrotation
		JOINT LeftUpLeg
		{
			OFFSET 11.394100 -6.187798 -0.413800
			CHANNELS 3 Xrotation Yrotation Zrotation
			JOINT LeftLeg
			{
				OFFSET 0.430247 -32.302673 3.732800
				CHANNELS 3 Xrotation Yrotation Zrotation
				JOINT LeftFoot
				{
					OFFSET -0.430247 -48.264931 -6.423300
					CHANNELS 3 Xrotation Yrotation Zrotation
					JOINT LeftToeBase
					{
						OFFSET 4.230900 -16.068199 23.438400
						CHANNELS 3 Xrotation Yrotation Zrotation
						JOINT LeftToe_End
						{
							OFFSET 4.510700 0.695400 19.974600
							CHANNELS 3 Xrotation Yrotation Zrotation
							End Site
							{
								OFFSET 0 0 0
							}
						}
					}
				}
			}
		}
	}
	JOINT RightUpLeg_virtual
	{
		OFFSET 0.000000 0.000000 0.000000
		CHANNELS 3 Xrotation Yrotation Zrotation
		JOINT RightUpLeg
		{
			OFFSET -11.333700 -6.187798 -0.413800
			CHANNELS 3 Xrotation Yrotation Zrotation
			JOINT RightLeg
			{
				OFFSET -0.430392 -32.302628 3.733000
				CHANNELS 3 Xrotation Yrotation Zrotation
				JOINT RightFoot
				{
					OFFSET 0.430392 -48.264973 -6.423500
					CHANNELS 3 Xrotation Yrotation Zrotation
					JOINT RightToeBase
					{
						OFFSET -4.230900 -16.068199 23.438400
						CHANNELS 3 Xrotation Yrotation Zrotation
						JOINT RightToe_End
						{
							OFFSET -4.510700 0.695400 19.974600
							CHANNELS 3 Xrotation Yrotation Zrotation
							End Site
							{
								OFFSET 0 0 0
							}
						}
					}
				}
			}
		}
	}
	JOINT Spine_virtual
	{
		OFFSET 0.000000 0.000000 0.000000
		CHANNELS 3 Xrotation Yrotation Zrotation
		JOINT Spine
		{
			OFFSET -0.002400 12.777504 0.315300
			CHANNELS 3 Xrotation Yrotation Zrotation
			JOINT Spine1
			{
				OFFSET -0.002067 5.816869 0.032633
				CHANNELS 3 Xrotation Yrotation Zrotation
				JOINT Spine1_split
				{
					OFFSET -0.002067 5.816869 0.032633
					CHANNELS 3 Xrotation Yrotation Zrotation
					JOINT Spine2
					{
						OFFSET -0.002067 5.816869 0.032633
						CHANNELS 3 Xrotation Yrotation Zrotation
						JOINT Neck_virtual
						{
							OFFSET 0.000000 0.000000 0.000000
							CHANNELS 3 Xrotation Yrotation Zrotation
							JOINT Neck
							{
								OFFSET -0.003700 21.199493 -0.826900
								CHANNELS 3 Xrotation Yrotation Zrotation
								JOINT Head
								{
									OFFSET 0.000000 20.442200 4.834800
									CHANNELS 3 Xrotation Yrotation Zrotation
									JOINT HeadTop_End
									{
										OFFSET 0.000000 34.668396 4.968400
										CHANNELS 3 Xrotation Yrotation Zrotation
										End Site
										{
											OFFSET 0 0 0
										}
									}
								}
							}
						}
						JOINT LeftShoulder_virtual
						{
							OFFSET 0.000000 0.000000 0.000000
							CHANNELS 3 Xrotation Yrotation Zrotation
							JOINT LeftShoulder
							{
								OFFSET 3.288150 8.794197 -1.372250
								CHANNELS 3 Xrotation Yrotation Zrotation
								JOINT LeftShoulder_split
								{
									OFFSET 3.288150 8.794197 -1.372250
									CHANNELS 3 Xrotation Yrotation Zrotation
									JOINT LeftArm
									{
										OFFSET 11.953299 -2.279007 -0.146200
										CHANNELS 3 Xrotation Yrotation Zrotation
										JOINT LeftForeArm
										{
											OFFSET 18.448900 0.000000 0.000000
											CHANNELS 3 Xrotation Yrotation Zrotation
											JOINT LeftHand
											{
												OFFSET 29.527798 0.000000 0.000000
												CHANNELS 3 Xrotation Yrotation Zrotation
												End Site
												{
													OFFSET 0 0 0
												}
											}
										}
									}
								}
							}
						}
						JOINT RightShoulder_virtual
						{
							OFFSET 0.000000 0.000000 0.000000
							CHANNELS 3 Xrotation Yrotation Zrotation
							JOINT RightShoulder
							{
								OFFSET -3.249400 8.794197 -1.372250
								CHANNELS 3 Xrotation Yrotation Zrotation
								JOINT RightShoulder_split
								{
									OFFSET -3.249400 8.794197 -1.372250
									CHANNELS 3 Xrotation Yrotation Zrotation
									JOINT RightArm
									{
										OFFSET -11.953299 -2.279007 -0.146200
										CHANNELS 3 Xrotation Yrotation Zrotation
										JOINT RightForeArm
										{
											OFFSET -18.448900 0.000000 0.000000
											CHANNELS 3 Xrotation Yrotation Zrotation
											JOINT RightHand
											{
												OFFSET -29.527802 0.000000 0.000000
												CHANNELS 3 Xrotation Yrotation Zrotation
												End Site
												{
													OFFSET 0 0 0
												}
											}
										}
									}
								}
							}
						}
					}
				}
			}
		}
	}
}
MOTION
Frames: 4
Frame Time: 0.03333333
3.218386 87.025612 33.147667 0.000000 0.000000 0.000000 10.169573 -6.529751 -2.695537 -88.243128 7.165594 12.563654 108.203420 -1.577568 -2.264118 23.714308 7.052776 -5.561681 4.775495 -0.603187 -5.841440 0.000000 0.000000 0.000000 5.835901 -12.999398 -1.625002 -41.816313 -10.192156 -2.969613 47.625458 6.251632 -1.362215 -27.474784 -14.567883 3.589431 4.315831 2.665833 1.287664 0.000000 0.000000 0.000000 7.452268 -11.828289 -2.824716 12.085718 1.595788 2.995509 4.561001 -0.568828 -1.206866 0.468124 1.735655 -0.966163 0.000000 0.000000 0.000000 3.018208 -0.286511 -1.568723 0.225624 1.955891 -2.478792 -8.901436 9.527168 1.756743 0.000000 0.000000 0.000000 3.166127 -0.416452 -1.375445 -0.356581 -9.703313 -4.183609 1.183694 2.708010 -0.470298 8.666022 -9.255990 -52.863595 4.594656 -79.198919 5.186339 0.000000 0.000000 0.000000 3.021453 -0.238687 -0.832312 2.850869 4.208212 12.595145 10.179641 1.266366 -4.147968 -2.557414 28.579537 25.219107 162.688440 73.691949 -165.035457 0.000000 0.000000 0.000000 
2.480412 87.007019 42.080898 0.000000 0.000000 0.000000 8.736168 -9.009277 -3.727564 -89.328383 7.780404 15.114802 100.187496 -0.622234 -3.758768 19.329227 5.711486 -6.934673 4.321445 -0.957005 -3.138791 0.000000 0.000000 0.000000 5.514034 -14.502431 -2.624226 -35.346099 -7.745787 -0.232495 53.915755 5.592119 -1.478721 -28.612436 -12.711868 0.188998 8.697562 3.120854 2.739736 0.000000 0.000000 0.000000 7.496224 -11.088403 -3.831652 11.787602 2.277054 2.791824 4.448253 -0.624099 -1.370856 0.780105 3.503157 -0.943472 0.000000 0.000000 0.000000 2.063445 -0.108524 -1.614843 0.283003 1.342533 -2.416506 -9.092043 10.256495 2.592860 0.000000 0.000000 0.000000 2.811112 -0.083137 -1.383565 -0.217768 -6.477985 -4.299191 2.158383 4.132334 -1.449077 15.995618 -6.816338 -52.012194 1.204223 -78.279746 1.458317 0.000000 0.000000 0.000000 2.642275 -0.128200 -1.115390 2.715770 3.697181 12.900338 8.266123 -1.221593 -3.330404 -4.306720 25.104342 28.437981 170.428383 72.108704 -172.975292 0.000000 0.000000 0.000000 
1.627685 86.789352 52.650612 0.000000 0.000000 0.000000 6.316310 -11.108460 -5.006136 -86.857808 7.896543 16.324062 89.292736 0.429997 -5.203459 11.230518 4.903458 -7.499902 2.756878 -1.470373 -0.869020 0.000000 0.000000 0.000000 4.127339 -13.873480 -4.266412 -29.845843 -5.754481 2.067310 62.313598 5.713077 -2.149487 -22.689774 -9.317198 -0.175219 -0.852206 4.075065 0.420442 0.000000 0.000000 0.000000 6.873059 -10.189085 -5.048651 11.138429 3.656527 2.579654 4.301595 -0.289099 -1.346234 0.549093 3.869159 -0.224187 0.000000 0.000000 0.000000 1.604469 0.357212 -1.490551 0.087215 0.004336 -2.251680 -8.951525 9.039066 3.250204 0.000000 0.000000 0.000000 2.565655 0.509142 -1.294278 0.076915 -2.742343 -4.359721 2.773269 4.108366 -1.697787 22.279662 -3.186861 -52.194120 -4.583218 -77.822752 -4.734466 0.000000 0.000000 0.000000 2.474714 0.361778 -1.296807 2.549916 3.185427 13.932622 6.626256 -1.865208 -3.014895 -7.128416 18.191080 32.771449 179.253916 72.630073 177.914093 0.000000 0.000000 0.000000 
1.093742 85.849159 63.543243 0.000000 0.000000 0.000000 2.851486 -11.682208 -6.267995 -80.547697 7.977591 15.798989 79.111882 1.553615 -6.438161 1.869198 4.990475 -6.314082 1.610896 -1.995918 0.066221 0.000000 0.000000 0.000000 2.144434 -11.921077 -5.843168 -25.617318 -4.513184 3.952108 70.678019 6.285797 -3.135755 -10.722408 -4.880878 1.492827 -22.566762 6.319414 -3.674661 0.000000 0.000000 0.000000 4.189855 -8.733914 -6.205684 10.262970 5.314038 2.154257 4.048666 0.307022 -1.271243 0.508604 2.857584 0.376058 0.000000 0.000000 0.000000 1.488918 0.938763 -1.329086 -0.081044 -1.509360 -2.207780 -8.210297 6.113210 3.576539 0.000000 0.000000 0.000000 2.324809 1.180942 -1.243551 0.495432 0.293079 -4.523013 3.102887 2.104514 -2.163592 25.494313 -0.095227 -52.850846 -10.410059 -77.412982 -10.771303 0.000000 0.000000 0.000000 2.543000 0.976546 -1.485908 2.426904 2.973674 15.568557 5.003396 -0.578407 -2.620166 -8.029455 11.121704 36.063771 -167.607460 77.253715 164.611889 0.000000 0.000000 0.000000 
